<svg xmlns="http://www.w3.org/2000/svg" viewBox="0 0 500 80" fill="none">
  <path d="M36 8c-17.7 0-32 14.3-32 32s14.3 32 32 32 32-14.3 32-32S53.7 8 36 8z" fill="#FF6C37"/>
  <path d="M26 34l8 8-8 8" stroke="white" stroke-width="4" stroke-linecap="round" stroke-linejoin="round"/>
  <path d="M38 34l8 8-8 8" stroke="white" stroke-width="4" stroke-linecap="round" stroke-linejoin="round"/>
  <path d="M96.5 57.6c-10.8 0-18-7.6-18-17.8s7.2-17.8 18-17.8c6 0 10.8 2.4 13.8 6.8l-6.2 4.2c-2-2.8-4.6-4.2-7.6-4.2-5.8 0-10 4.4-10 11s4.2 11 10 11c3 0 5.6-1.4 7.6-4.2l6.2 4.2c-3 4.4-7.8 6.8-13.8 6.8z" fill="#1A1A2E"/>
  <path d="M131 22.4c5.2 0 9.2 2 11.6 5.6V7.6h7.8v49.6h-7.2l-.4-5c-2.4 3.6-6.8 5.8-12.2 5.8-10.2 0-17.2-7.6-17.2-17.8s7-17.8 17.6-17.8zm1.4 28.8c5.8 0 10.2-4.4 10.2-11s-4.4-11-10.2-11-10.2 4.4-10.2 11 4.4 11 10.2 11z" fill="#1A1A2E"/>
  <path d="M174.6 22.4c5 0 8.8 1.6 11.2 4.8l-5.2 5.2c-1.6-2-3.6-3-6-3-3.2 0-5.2 1.6-5.2 3.8 0 2.8 3 3.6 7 4.8 6.6 2 12 4 12 11.2 0 7-5.6 11.4-13.4 11.4-5.6 0-10.6-2.4-13.2-6.4l5.6-4.8c1.8 2.4 4.2 3.8 7.4 3.8 3.4 0 5.6-1.4 5.6-4 0-2.8-2.8-3.8-7.2-5.2-6-1.8-11.6-4.2-11.6-11 0-6.6 5.4-10.6 12.8-10.6z" fill="#1A1A2E"/>
  <path d="M199.7 57.2h-7.8v-34h7.4l.4 5c2.4-3.8 6.4-5.8 11.2-5.8 8.2 0 13 5.6 13 14.2v20.6h-7.8V38c0-5.4-2.8-8.6-7.8-8.6-4.8 0-8.6 3.6-8.6 9.4v18.4z" fill="#1A1A2E"/>
  <path d="M248.2 22.4c10.6 0 17.6 7.6 17.6 18.4v2h-27.8c.8 5.8 4.8 9.4 10.6 9.4 4.2 0 7.4-1.6 9.4-4.4l5.4 4.6c-3.4 4.4-8.8 6.8-15.2 6.8-11.4 0-18.4-7.6-18.4-18.4 0-10.4 7-18.4 18.4-18.4zm-10 15h20c-.8-5.4-4.6-8.8-10-8.8-5.2 0-9 3.4-10 8.8z" fill="#1A1A2E"/>
  <path d="M290 22.4c10.6 0 17.6 7.6 17.6 18.4v2h-27.8c.8 5.8 4.8 9.4 10.6 9.4 4.2 0 7.4-1.6 9.4-4.4l5.4 4.6c-3.4 4.4-8.8 6.8-15.2 6.8-11.4 0-18.4-7.6-18.4-18.4 0-10.4 7-18.4 18.4-18.4zm-10 15h20c-.8-5.4-4.6-8.8-10-8.8-5.2 0-9 3.4-10 8.8z" fill="#1A1A2E"/>
</svg>
