<svg xmlns="http://www.w3.org/2000/svg" viewBox="0 0 460 80" fill="none">
  <rect x="4" y="8" width="64" height="64" rx="16" fill="#6C5CE7"/>
  <circle cx="28" cy="32" r="5" fill="white"/>
  <circle cx="44" cy="32" r="5" fill="white"/>
  <path d="M24 50c0 0 6 8 12 8s12-8 12-8" stroke="white" stroke-width="3.5" stroke-linecap="round"/>
  <path d="M88 23.2h16c10.8 0 18 7 18 17.6S114.8 58.4 104 58.4H88V23.2zm15.2 28.4c6.4 0 10.6-4.6 10.6-10.8s-4.2-10.8-10.6-10.8H96v21.6h7.2z" fill="#2D3436"/>
  <path d="M137 33.4c10.4 0 17.8 7.4 17.8 17.4s-7.4 17.4-17.8 17.4S119.2 61.2 119.2 50.8s7.4-17.4 17.8-17.4zm0 28c5.8 0 10.2-4.4 10.2-10.6S142.8 40.2 137 40.2s-10.2 4.4-10.2 10.6S131.2 61.4 137 61.4z" fill="#2D3436"/>
  <path d="M175.6 33.4c5.2 0 9.2 2 11.6 5.6V7.6h7.8v49.6h-7.2l-.4-5c-2.4 3.6-6.8 5.8-12.2 5.8-10.2 0-17.2-7.6-17.2-17.8s7-17.8 17.6-17.8zm1.4 28.8c5.8 0 10.2-4.4 10.2-11s-4.4-11-10.2-11-10.2 4.4-10.2 11 4.4 11 10.2 11z" fill="#2D3436"/>
  <path d="M210.4 33.4c10.4 0 17.8 7.4 17.8 17.4s-7.4 17.4-17.8 17.4-17.8-7.4-17.8-17.4 7.4-17.4 17.8-17.4zm0 28c5.8 0 10.2-4.4 10.2-10.6s-4.4-10.6-10.2-10.6-10.2 4.4-10.2 10.6 4.4 10.6 10.2 10.6z" fill="#2D3436"/>
  <path d="M254 23.2h16.4c10.4 0 17 6 17 14.4s-6.6 14.4-17 14.4H262v6.4h-8V23.2zm15.6 22c5.6 0 9.2-3.2 9.2-7.6s-3.6-7.6-9.2-7.6H262v15.2h7.6z" fill="#6C5CE7"/>
  <path d="M302.8 33.4c9 0 15.4 5.4 15.4 14.4v10.6h-7.4v-4.2c-2.4 3.2-6.4 5-11.2 5-7.2 0-12.2-4.2-12.2-10.2 0-6.4 5.4-10 14-10h9v-1c0-5-3.2-8-8.8-8-4 0-7.6 1.8-9.6 4.8l-5.6-4.4c3.2-4.4 8.8-6.8 16.4-6.8zm1.2 26c4.4 0 7.8-2 7.8-6.8v-1.6h-8.6c-4.8 0-7.2 1.8-7.2 5 0 2.8 2.8 3.4 8 3.4z" fill="#6C5CE7"/>
  <path d="M338.8 58.4l-14.2-24.2h9l9.6 17.2 9.6-17.2h8.8l-14.2 24.2v9h-8.6v-9z" fill="#6C5CE7"/>
  <path d="M376.6 33.4c5 0 8.8 1.6 11.2 4.8l-5.2 5.2c-1.6-2-3.6-3-6-3-3.2 0-5.2 1.6-5.2 3.8 0 2.8 3 3.6 7 4.8 6.6 2 12 4 12 11.2 0 7-5.6 11.4-13.4 11.4-5.6 0-10.6-2.4-13.2-6.4l5.6-4.8c1.8 2.4 4.2 3.8 7.4 3.8 3.4 0 5.6-1.4 5.6-4 0-2.8-2.8-3.8-7.2-5.2-6-1.8-11.6-4.2-11.6-11 0-6.6 5.4-10.6 12.8-10.6z" fill="#6C5CE7"/>
</svg>
