<svg xmlns="http://www.w3.org/2000/svg" viewBox="0 0 394 80" fill="none">
  <rect x="0" y="4" width="72" height="72" rx="16" fill="#FFCE00"/>
  <rect x="16" y="16" width="18" height="26" rx="4" fill="#0E1A2A"/>
  <rect x="38" y="16" width="18" height="26" rx="4" fill="#0E1A2A"/>
  <circle cx="25" cy="56" r="6" fill="#0E1A2A"/>
  <circle cx="47" cy="56" r="6" fill="#0E1A2A"/>
  <path d="M96 22.4c7.8 0 13.4 4.2 15.4 10.8h-8c-1.4-2.6-4.1-4-7.4-4-5.5 0-9.3 4-9.3 10.8s3.8 10.8 9.3 10.8c3.3 0 6-1.4 7.4-4h8c-2 6.6-7.6 10.8-15.4 10.8C84.6 57.6 78 50.4 78 40s6.6-17.6 18-17.6z" fill="#0E1A2A"/>
  <path d="M128.8 22.4c9 0 15.4 5.4 15.4 14.4v20.4h-7.4v-4.2c-2.4 3.2-6.4 5-11.2 5-7.2 0-12.2-4.2-12.2-10.2 0-6.4 5.4-10 14-10h9v-1c0-5-3.2-8-8.8-8-4 0-7.6 1.8-9.6 4.8l-5.6-4.4c3.2-4.4 8.8-6.8 16.4-6.8zm1.2 33.2c4.4 0 7.8-2 7.8-6.8v-1.6h-8.6c-4.8 0-7.2 1.8-7.2 5 0 2.8 2.8 3.4 8 3.4z" fill="#0E1A2A"/>
  <path d="M173.7 22.4c5 0 9.2 2 11.6 5.6V7.6h7.8v49.6h-7.4l-.4-4.8c-2.4 3.6-6.8 5.6-12 5.6-10.4 0-17.4-7.4-17.4-17.8s7.2-17.8 17.8-17.8zm1.4 29c5.8 0 10.2-4.4 10.2-11.2s-4.4-11.2-10.2-11.2-10.2 4.4-10.2 11.2 4.4 11.2 10.2 11.2z" fill="#0E1A2A"/>
  <path d="M220.8 22.4c5 0 9.2 2 11.6 5.6V7.6h7.8v49.6h-7.4l-.4-4.8c-2.4 3.6-6.8 5.6-12 5.6-10.4 0-17.4-7.4-17.4-17.8s7.2-17.8 17.8-17.8zm1.4 29c5.8 0 10.2-4.4 10.2-11.2s-4.4-11.2-10.2-11.2-10.2 4.4-10.2 11.2 4.4 11.2 10.2 11.2z" fill="#0E1A2A"/>
  <path d="M249.4 7.6h7.8v49.6h-7.8V7.6z" fill="#0E1A2A"/>
  <path d="M285.4 22.4c10.6 0 17.6 7.6 17.6 18.4v2h-27.8c.8 5.8 4.8 9.4 10.6 9.4 4.2 0 7.4-1.6 9.4-4.4l5.4 4.6c-3.4 4.4-8.8 6.8-15.2 6.8-11.4 0-18.4-7.6-18.4-18.4 0-10.4 7-18.4 18.4-18.4zm-10 15h20c-.8-5.4-4.6-8.8-10-8.8-5.2 0-9 3.4-10 8.8z" fill="#0E1A2A"/>
</svg>
