<svg xmlns="http://www.w3.org/2000/svg" viewBox="0 0 280 80" fill="none">
  <circle cx="36" cy="40" r="28" fill="#0062FF"/>
  <path d="M24 40a12 12 0 0124 0" stroke="white" stroke-width="4" fill="none" stroke-linecap="round"/>
  <circle cx="36" cy="40" r="4" fill="white"/>
  <path d="M84 23.2h16.4c10.4 0 17 6 17 14.4s-6.6 14.4-17 14.4H92V65h-8V23.2zm15.6 22c5.6 0 9.2-3.2 9.2-7.6s-3.6-7.6-9.2-7.6H92v15.2h7.6z" fill="#0A0A0A"/>
  <path d="M132 33.4c10.4 0 17.8 7.4 17.8 17.4s-7.4 17.4-17.8 17.4-17.8-7.4-17.8-17.4 7.4-17.4 17.8-17.4zm0 28c5.8 0 10.2-4.4 10.2-10.6s-4.4-10.6-10.2-10.6-10.2 4.4-10.2 10.6S126.2 61.4 132 61.4z" fill="#0A0A0A"/>
  <path d="M158 7.6h7.8V65H158V7.6z" fill="#0A0A0A"/>
  <path d="M190.8 33.4c9 0 15.4 5.4 15.4 14.4V65h-7.4v-4.2c-2.4 3.2-6.4 5-11.2 5-7.2 0-12.2-4.2-12.2-10.2 0-6.4 5.4-10 14-10h9v-1c0-5-3.2-8-8.8-8-4 0-7.6 1.8-9.6 4.8l-5.6-4.4c3.2-4.4 8.8-6.8 16.4-6.8zm1.2 26c4.4 0 7.8-2 7.8-6.8v-1.6h-8.6c-4.8 0-7.2 1.8-7.2 5 0 2.8 2.8 3.4 8 3.4z" fill="#0A0A0A"/>
  <path d="M225 34.2h7.4l.4 5.4c2.2-4 6-6.2 10.8-6.2v8h-2c-5.2 0-8.8 2.8-8.8 9.2V65H225V34.2z" fill="#0A0A0A"/>
</svg>
