<svg xmlns="http://www.w3.org/2000/svg" viewBox="0 0 512 116" fill="none">
  <path d="M96.89 0L55.27 116h29.65L126.53 0H96.89Z" fill="#3395FF"/>
  <path d="M14.57 53.46L0 116h28.86L62.88 0 14.57 53.46Z" fill="#072654"/>
  <path d="M96.89 0L62.88 0 14.57 53.46 55.27 116l41.62-116Z" fill="#3395FF"/>
  <path d="M172.7 41.3c-4.8 0-9.1 1.6-12.5 4.6l-1-3.6h-14.2v71.5h16.1V72.4c2.3 3 6.3 5.1 11.4 5.1 12.5 0 21.8-10.8 21.8-24.6 0-13.1-8-11.6-21.6-11.6zm-3.9 35.8c-5.2 0-9.4-4.5-9.4-12.1 0-7.5 4.2-12 9.4-12s9.4 4.5 9.4 12-4.2 12.1-9.4 12.1zm60.2-35.8c-14.5 0-24.1 9.8-24.1 24.1s9.6 24.1 24.1 24.1c8.1 0 14.2-3.4 18.4-8.6l-10-7.3c-2.1 2.6-4.9 3.9-8.4 3.9-5 0-8.4-2.8-9.5-7.1h29.9c.2-1.1.3-2.5.3-4.1 0-15.8-9.2-25-20.7-25zm-8.9 18.7c.9-5 4.3-8.2 9-8.2 4.6 0 7.9 3.2 8.8 8.2h-17.8zm81.5-17.7l-13.6 36.5-13.6-36.5h-17.3l22.3 52.5-2.1 5.3c-2 5-4.3 6.5-8.3 6.5-2.8 0-5.5-.9-7.8-2.4l-5.5 11.6c3.8 2.4 8.3 3.7 13.2 3.7 9.5 0 15.2-4.8 19.8-16.3l24.4-60.9h-11.5zm-102-1h-16.1v35.5h16.1V41.3zm-8.1-28.8c-5.5 0-10 4.5-10 10s4.5 10 10 10 10-4.5 10-10-4.5-10-10-10z" fill="#072654"/>
  <path d="M353.6 41.3c-14.5 0-24.1 9.8-24.1 24.1s9.6 24.1 24.1 24.1c14.5 0 24.1-9.8 24.1-24.1s-9.6-24.1-24.1-24.1zm0 36.2c-6.6 0-8.7-6.1-8.7-12.1s2.1-12 8.7-12 8.7 6 8.7 12-2.1 12.1-8.7 12.1zm46.7-36.2c-4.8 0-9.1 1.6-12.5 4.6l-1-3.6h-14.2v35.5h16.1V55.6c2.3-3.4 5.5-5 9.2-5 1.6 0 3 .2 4.3.6l2.3-13.8c-1.5-.6-3-1-4.2-1zm47.1 0c-14.5 0-24.1 9.8-24.1 24.1s9.6 24.1 24.1 24.1 24.1-9.8 24.1-24.1-9.6-24.1-24.1-24.1zm0 36.2c-6.6 0-8.7-6.1-8.7-12.1s2.1-12 8.7-12 8.7 6 8.7 12-2.1 12.1-8.7 12.1z" fill="#072654"/>
</svg>
