<svg xmlns="http://www.w3.org/2000/svg" viewBox="0 0 340 80" fill="none">
  <path d="M8 8h24c14 0 24 10 24 24s-10 24-24 24H20l20 16H26L8 56V8z" fill="#7B58C3"/>
  <path d="M20 20v24h12c6.6 0 12-5.4 12-12s-5.4-12-12-12H20z" fill="#9B7FD4"/>
  <circle cx="32" cy="32" r="5" fill="white"/>
  <path d="M80 34.2h7.4l.4 5.4c2.2-4 6-6.2 10.8-6.2v8h-2c-5.2 0-8.8 2.8-8.8 9.2V65H80V34.2z" fill="#2D1B4E"/>
  <path d="M118.2 33.4c10.6 0 17.6 7.6 17.6 18.4v2h-27.8c.8 5.8 4.8 9.4 10.6 9.4 4.2 0 7.4-1.6 9.4-4.4l5.4 4.6c-3.4 4.4-8.8 6.8-15.2 6.8-11.4 0-18.4-7.6-18.4-18.4 0-10.4 7-18.4 18.4-18.4zm-10 15h20c-.8-5.4-4.6-8.8-10-8.8-5.2 0-9 3.4-10 8.8z" fill="#2D1B4E"/>
  <path d="M155.8 33.4c7.8 0 13.4 4.2 15.4 10.8h-8c-1.4-2.6-4.1-4-7.4-4-5.5 0-9.3 4.4-9.3 11s3.8 11 9.3 11c3.3 0 6-1.4 7.4-4h8c-2 6.6-7.6 10.8-15.4 10.8-11 0-17.6-7.6-17.6-17.8s6.6-17.8 17.6-17.8z" fill="#2D1B4E"/>
  <path d="M194.4 33.4c5.2 0 8.8 2 11 5.4V34.2h7.8V65h-7.8v-4.4c-2.2 3.4-5.8 5.4-11 5.4-10 0-16.6-7.6-16.6-16.3s6.6-16.3 16.6-16.3zm1.6 26.2c5.4 0 9.4-4 9.4-9.4s-4-9.4-9.4-9.4-9.4 4-9.4 9.4 4 9.4 9.4 9.4z" fill="#2D1B4E"/>
  <path d="M222.2 34.2h7.4l.4 5.4c2.2-4 6-6.2 10.8-6.2v8h-2c-5.2 0-8.8 2.8-8.8 9.2V65h-7.8V34.2z" fill="#2D1B4E"/>
  <path d="M248 7.6h7.8V65H248V7.6z" fill="#2D1B4E"/>
  <path d="M275.4 58.4l-14.2-24.2h9l9.6 17.2 9.6-17.2h8.8l-22.4 39.4h-8.8l8.4-15.2z" fill="#2D1B4E"/>
</svg>
