<svg xmlns="http://www.w3.org/2000/svg" viewBox="0 0 468 222.5" fill="#635bff">
  <path d="M414 113.4c0-25.6-12.4-45.8-36.1-45.8-23.8 0-38.2 20.2-38.2 45.6 0 30.1 17 45.3 41.4 45.3 11.9 0 20.9-2.7 27.7-6.5v-20c-6.8 3.4-14.6 5.5-24.5 5.5-9.7 0-18.3-3.4-19.4-15.2h48.9c0-1.3.2-6.5.2-8.9zm-49.4-9.5c0-11.3 6.9-16 13.2-16 6.1 0 12.6 4.7 12.6 16zm-63.5-36.3c-9.8 0-16.1 4.6-19.6 7.8l-1.3-6.2h-22v116.6l25-5.3.1-28.3c3.6 2.6 8.9 6.3 17.7 6.3 17.9 0 34.2-14.4 34.2-46.1-.1-29-16.6-44.8-34.1-44.8zm-6 68.9c-5.9 0-9.4-2.1-11.8-4.7l-.1-37.1c2.6-2.9 6.2-4.9 11.9-4.9 9.1 0 15.4 10.2 15.4 23.3 0 13.4-6.2 23.4-15.4 23.4zM209.7 65.9l25.1-5.4V40l-25.1 5.3zm0 7.3H235v80.2h-25.3zm-25.9 14.9l-1.6-7.6h-21.6v80.2H186V91c5.9-7.7 15.9-6.3 19-5.2v-23c-3.2-1.2-14.9-3.4-21.2 5.3zm-59-22.2l-24.8 5.3-.1 73.5c0 13.5 10.1 23.5 23.6 23.5 7.5 0 12.9-1.4 15.9-3v-20.3c-2.8 1.1-16.6 5.2-16.6-7.8V90.6h16.6V69.2h-16.6zM79.3 94.7c0-3.9 3.2-5.4 8.5-5.4 7.6 0 17.2 2.3 24.8 6.4V72.2c-8.3-3.3-16.5-4.6-24.8-4.6C67.5 67.6 52 79.5 52 98.2c0 29.3 40.3 24.6 40.3 37.3 0 4.6-4 6.1-9.6 6.1-8.3 0-18.9-3.4-27.3-8v23.8c9.3 4 18.7 5.7 27.3 5.7 20.8 0 35.1-10.3 35.1-28.2-.1-31.5-40.5-26-40.5-40.2z"/>
</svg>
